<?xml version="1.0" encoding="iso-8859-1"?>
<!-- Uploaded to: SVG Repo, www.svgrepo.com, Generator: SVG Repo Mixer Tools -->
<svg version="1.1" fill="#61dafb" xmlns="http://www.w3.org/2000/svg" xmlns:xlink="http://www.w3.org/1999/xlink" 
	 viewBox="15 0 300 300" xml:space="preserve" >
<g>
	
	<path  d="M42.158,140.681h3.296c2.252,0,4.079,1.828,4.079,4.079v32.335c0,3.748,3.051,6.799,6.799,6.799
		h1.256c3.748,0,6.799-3.051,6.799-6.799v-51.78c0-3.748-2.828-6.799-6.304-6.799c-1.795,0-6.01,0.228-6.434,2.35
		c-0.071,0.343-0.163,0.734-0.277,1.153c-0.462,1.659-1.142,2.986-2.018,3.949c-1.311,1.447-2.981,2.382-5.102,2.872
		c-0.843,0.196-2.089,0.364-3.709,0.5c-2.904,0.25-5.178,2.796-5.178,5.793C35.359,138.19,38.411,140.681,42.158,140.681z"/>
	<path  d="M94.759,155.862c-6.467,4.797-10.644,9.459-12.39,13.777c-1.066,2.263-1.849,4.699-2.328,7.234
		c-0.326,1.713,0.109,3.394,1.218,4.732c1.202,1.458,3.024,2.29,4.993,2.29h30.388c3.748,0,6.799-3.046,6.799-6.783
		s-3.051-6.783-6.799-6.783H101.21c-1.159,0-2.002-0.136-2.535-0.288c0.245-0.261,0.5-0.511,0.772-0.751
		c1.066-0.952,3.084-2.524,5.999-4.672l4.743-3.497c4.085-3.002,7.087-5.793,8.909-8.284c2.828-3.824,4.264-8.257,4.264-13.168
		c0-6.402-2.04-11.64-6.07-15.556c-4.014-3.911-9.459-5.891-16.176-5.891c-8.588,0-14.664,3.405-18.063,10.122
		c-1.115,2.203-1.925,4.863-2.41,7.903c-0.277,1.741,0.196,3.427,1.333,4.759c1.207,1.414,3.013,2.23,4.944,2.23h0.636
		c3.639,0,6.701-2.181,7.12-5.069c0.212-1.447,0.511-2.594,0.887-3.405c1.066-2.29,3.068-3.405,6.119-3.405
		c2.219,0,3.856,0.696,5.009,2.127c1.224,1.523,1.817,3.405,1.817,5.76c0,2.937-1.093,5.575-3.34,8.066
		C103.625,148.987,100.122,151.864,94.759,155.862z"/>
	<path d="M140.578,183.895h1.713c3.748,0,6.799-3.051,6.799-6.799v-2.04c0-3.748-3.051-6.799-6.799-6.799
		h-1.713c-3.748,0-6.799,3.051-6.799,6.799v2.04C133.779,180.843,136.825,183.895,140.578,183.895z"/>
	<path d="M140.578,151.527h1.713c3.748,0,6.799-3.051,6.799-6.799v-2.04c0-3.748-3.051-6.799-6.799-6.799
		h-1.713c-3.748,0-6.799,3.051-6.799,6.799v2.04C133.779,148.476,136.825,151.527,140.578,151.527z"/>
	<path d="M177.281,185.45c8.169,0,14.006-3.057,17.34-9.083c3.187-5.771,4.803-14.027,4.803-24.557
		c0-10.525-1.615-18.797-4.803-24.595c-3.334-6.059-9.17-9.127-17.34-9.127s-14.006,3.068-17.34,9.127
		c-3.182,5.793-4.797,14.071-4.797,24.595c0,10.53,1.615,18.792,4.803,24.557C163.275,182.394,169.111,185.45,177.281,185.45z
		 M171.597,135.449c0.957-3.062,2.763-4.493,5.684-4.493c2.915,0,4.699,1.425,5.619,4.476c1.05,3.486,1.583,8.996,1.583,16.372
		c0,7.044-0.533,12.477-1.588,16.154c-0.925,3.236-2.714,4.743-5.613,4.743c-2.91,0-4.716-1.512-5.678-4.754
		c-1.093-3.671-1.648-9.105-1.648-16.143C169.954,144.434,170.504,138.93,171.597,135.449z"/>
	<path d="M224.617,185.45c8.169,0,14.006-3.057,17.34-9.083c3.187-5.771,4.803-14.027,4.803-24.557
		c0-10.525-1.615-18.797-4.803-24.595c-3.334-6.059-9.17-9.127-17.34-9.127c-8.169,0-14.006,3.068-17.34,9.127
		c-3.182,5.793-4.797,14.071-4.797,24.595c0,10.53,1.615,18.792,4.803,24.557C210.611,182.394,216.448,185.45,224.617,185.45z
		 M218.933,135.449c0.957-3.062,2.763-4.493,5.684-4.493c2.915,0,4.699,1.425,5.619,4.476c1.05,3.486,1.583,8.996,1.583,16.372
		c0,7.044-0.533,12.477-1.588,16.154c-0.925,3.236-2.714,4.743-5.613,4.743c-2.91,0-4.716-1.512-5.678-4.754
		c-1.093-3.671-1.648-9.105-1.648-16.143C217.291,144.434,217.84,138.93,218.933,135.449z"/>
	<path d="M254.51,190.052c2.132,0,3.867-1.974,3.867-4.4v-3.758c1.164,0.713,2.562,1.071,4.161,1.071
		c2.839,0,5.194-1.061,7.005-3.16c1.762-2.04,2.654-4.971,2.654-8.708c0-3.59-0.925-6.385-2.747-8.305
		c-1.838-1.947-4.123-2.937-6.788-2.937c-1.866,0-3.508,0.533-4.884,1.588c-0.049,0.038-0.092,0.076-0.141,0.114
		c-0.658-0.778-1.828-1.273-3.214-1.273c-2.089,0-3.791,1.974-3.791,4.4v20.973C250.643,188.083,252.378,190.052,254.51,190.052z
		 M258.649,168.769c0.49-1.235,1.256-1.762,2.567-1.762c1.371,0,1.893,0.571,2.187,1.066c0.566,0.946,0.843,2.018,0.843,3.274
		c0,0.723-0.071,1.387-0.207,1.969c-0.218,0.941-1.088,2.181-1.577,2.42c-0.832,0.413-2.17,0.332-2.991-0.277
		c-0.843-0.636-1.273-1.871-1.273-3.666C258.203,170.542,258.356,169.519,258.649,168.769z"/>
	<path d="M276.908,182.415c2.17,0,3.932-1.974,3.932-4.4v-8.643c0-1.099,0.163-1.577,0.25-1.746
		c0.103-0.19,0.364-0.685,1.719-0.685c0.995,0,1.175,0.397,1.273,0.609c0.071,0.158,0.234,0.658,0.234,1.947v8.518
		c0,2.426,1.757,4.4,3.916,4.4s3.916-1.974,3.916-4.4v-8.518c0-0.674,0.098-1.235,0.283-1.659c0.228-0.495,0.587-0.952,1.67-0.952
		c0.979,0,1.169,0.392,1.278,0.604c0.136,0.277,0.212,0.696,0.212,1.207v9.317c0,2.426,1.779,4.4,3.96,4.4
		c2.181,0,3.965-1.974,3.971-4.4l0.027-9.197c0-1.343-0.065-2.361-0.201-3.127c-0.234-1.197-0.696-2.235-1.387-3.089
		c-0.821-1.012-1.768-1.73-2.812-2.148c-2.431-0.968-5.031-0.723-7.174,0.37c-0.577,0.315-1.115,0.713-1.643,1.327
		c-0.299-0.37-0.642-0.713-1.066-1.061c-2.361-1.686-6.668-1.648-9.051,0.19c-0.082,0.065-0.169,0.131-0.256,0.212
		c-0.68-0.718-1.817-1.169-3.16-1.169c-2.11,0-3.829,1.974-3.829,4.4v13.299C272.976,180.441,274.738,182.415,276.908,182.415z"/>
</g>
</svg>